<?xml version="1.0" encoding="UTF-8" standalone="no"?>
<!-- Creator: CorelDRAW X6 -->

<svg
   xml:space="preserve"
   width="332.0473"
   height="122.56681"
   version="1.1"
   viewBox="0 0 4679.9788 1727.8295"
   id="svg2"
   inkscape:version="1.3 (0e150ed6c4, 2023-07-21)"
   sodipodi:docname="embrapa-logo.svg"
   style="clip-rule:evenodd;fill-rule:evenodd;image-rendering:optimizeQuality;shape-rendering:geometricPrecision;text-rendering:geometricPrecision"
   xmlns:inkscape="http://www.inkscape.org/namespaces/inkscape"
   xmlns:sodipodi="http://sodipodi.sourceforge.net/DTD/sodipodi-0.dtd"
   xmlns="http://www.w3.org/2000/svg"
   xmlns:svg="http://www.w3.org/2000/svg"
   xmlns:rdf="http://www.w3.org/1999/02/22-rdf-syntax-ns#"
   xmlns:cc="http://creativecommons.org/ns#"
   xmlns:dc="http://purl.org/dc/elements/1.1/"><title
     id="title4150">Embrapa</title><metadata
     id="metadata15"><rdf:RDF><cc:Work
         rdf:about=""><dc:format>image/svg+xml</dc:format><dc:type
           rdf:resource="http://purl.org/dc/dcmitype/StillImage" /><dc:title>Embrapa</dc:title><cc:license
           rdf:resource="http://creativecommons.org/publicdomain/zero/1.0/" /><dc:date>2015-11-19 17:50:00</dc:date><dc:creator><cc:Agent><dc:title>Pablo Busatto Figueiredo</dc:title></cc:Agent></dc:creator><dc:rights><cc:Agent><dc:title>Pablo Busatto Figueiredo</dc:title></cc:Agent></dc:rights><dc:publisher><cc:Agent><dc:title /></cc:Agent></dc:publisher><dc:subject><rdf:Bag><rdf:li>Embrapa; logo</rdf:li></rdf:Bag></dc:subject><dc:description>logo of Embrapa</dc:description></cc:Work><cc:License
         rdf:about="http://creativecommons.org/publicdomain/zero/1.0/"><cc:permits
           rdf:resource="http://creativecommons.org/ns#Reproduction" /><cc:permits
           rdf:resource="http://creativecommons.org/ns#Distribution" /><cc:permits
           rdf:resource="http://creativecommons.org/ns#DerivativeWorks" /></cc:License></rdf:RDF></metadata><defs
     id="defs13" /><sodipodi:namedview
     pagecolor="#ffffff"
     bordercolor="#666666"
     borderopacity="1"
     objecttolerance="10"
     gridtolerance="10"
     guidetolerance="10"
     inkscape:pageopacity="0"
     inkscape:pageshadow="2"
     inkscape:window-width="2560"
     inkscape:window-height="1009"
     id="namedview11"
     showgrid="false"
     inkscape:zoom="1.7057735"
     inkscape:cx="198.73682"
     inkscape:cy="146.8542"
     inkscape:window-x="1672"
     inkscape:window-y="-8"
     inkscape:window-maximized="1"
     inkscape:current-layer="svg2"
     fit-margin-top="38.519"
     fit-margin-left="38.519"
     fit-margin-right="38.519"
     fit-margin-bottom="38.519"
     units="px"
     inkscape:showpageshadow="2"
     inkscape:pagecheckerboard="0"
     inkscape:deskcolor="#d1d1d1" /><g
     id="g4169"
     transform="translate(116.51562,9.0688128)">&#10;</g><g
     inkscape:groupmode="layer"
     id="layer1"
     inkscape:label="Layer 1"
     transform="translate(116.51562,9.0688128)" /><g
     transform="matrix(60.95282,0,0,-60.95282,2608.5658,921.48473)"
     id="g214"
     style="fill:#007937"
     inkscape:export-filename="C:\Users\suitedoalex\sites\embrapa-logo-7.png"
     inkscape:export-xdpi="14.455771"
     inkscape:export-ydpi="14.455771"><path
       inkscape:connector-curvature="0"
       id="path216"
       style="fill:#007937;fill-opacity:1;fill-rule:nonzero;stroke:none"
       d="m 0,0 -0.812,-3.772 h -3.565 l 1.504,7.005 c 0.185,0.847 0.285,1.405 0.4,2.428 H 1.16 L 0.838,3.896 H 0.871 C 1.629,5.451 2.902,5.98 4.484,5.946 L 3.828,2.909 C 3.564,2.93 3.324,2.93 3.068,2.93 1.203,2.909 0.332,1.795 0,0 M 13.664,-3.77 12.83,0.158 12.4,-1.845 C 12.324,-2.248 12.301,-2.66 12.199,-3.77 H 11.342 8.769 c -0.011,0.294 0.055,0.592 0.196,1.262 H 8.93 C 8.355,-3.175 7.346,-4.059 5.584,-4.059 c -2.236,0 -3.143,1.191 -2.697,3.132 0.543,2.3 2.847,3.242 5.931,3.242 H 9.949 C 10.133,3.141 10.58,4.342 9.137,4.284 8.262,4.249 7.795,3.404 7.693,2.843 H 4.322 c 0.276,1.33 1.137,2.111 2.19,2.531 1.076,0.46 2.314,0.572 3.367,0.572 0.598,0 1.222,-0.079 1.775,-0.248 L 11.398,6.91 c -0.96,4.531 -5.541,8.208 -10.064,8.208 h -17.582 l 2.275,-10.749 1.172,5.429 h 3.576 l -1.111,-5.132 h 0.045 c 0.836,0.846 2.078,1.28 3.15,1.28 2.903,0 3.725,-2.182 3.155,-4.858 -0.618,-2.875 -2.397,-5.147 -5.51,-5.147 -1.108,0 -2.24,0.723 -2.283,1.662 h -0.073 l -0.398,-1.373 0.266,-1.25 c 0.964,-4.529 5.537,-8.209 10.054,-8.209 h 17.606 z" /></g><g
     transform="matrix(60.95282,0,0,-60.95282,2139.869,862.08023)"
     id="g218"
     style="fill:#007937"
     inkscape:export-filename="C:\Users\suitedoalex\sites\embrapa-logo-7.png"
     inkscape:export-xdpi="14.455771"
     inkscape:export-ydpi="14.455771"><path
       inkscape:connector-curvature="0"
       id="path220"
       style="fill:#007937;fill-opacity:1;fill-rule:nonzero;stroke:none"
       d="m 0,0 c 0.252,1.168 0.459,2.899 -1.066,2.899 -1.619,0 -2.143,-1.812 -2.409,-3.071 -0.23,-1.054 -0.285,-2.799 1.014,-2.799 1.569,0 2.199,1.745 2.461,2.971" /></g><g
     transform="matrix(60.95282,0,0,-60.95282,2998.3287,967.66873)"
     id="g222"
     style="fill:#007937"
     inkscape:export-filename="C:\Users\suitedoalex\sites\embrapa-logo-7.png"
     inkscape:export-xdpi="14.455771"
     inkscape:export-ydpi="14.455771"><path
       inkscape:connector-curvature="0"
       id="path224"
       style="fill:#007937;fill-opacity:1;fill-rule:nonzero;stroke:none"
       d="m 0,0 c -0.147,-0.678 0.275,-1.237 0.951,-1.237 1.551,0 1.985,1.444 2.26,2.706 C 2.455,1.469 1.756,1.516 1.207,1.263 0.621,1.003 0.141,0.666 0,0" /></g><g
     transform="matrix(60.95282,0,0,-60.95282,4598.938,1151.2527)"
     id="g226"
     style="fill:#0f408f"
     inkscape:export-filename="C:\Users\suitedoalex\sites\embrapa-logo-7.png"
     inkscape:export-xdpi="14.455771"
     inkscape:export-ydpi="14.455771"><path
       inkscape:connector-curvature="0"
       id="path228"
       style="fill:#0f408f;fill-opacity:1;fill-rule:nonzero;stroke:none"
       d="M 0,0 C 0.115,1.109 0.127,1.521 0.209,1.925 L 1.26,6.783 C 1.754,8.9 -0.391,9.716 -2.303,9.716 -3.359,9.716 -4.605,9.603 -5.682,9.144 -6.74,8.724 -7.598,7.942 -7.873,6.609 h 3.367 c 0.106,0.563 0.576,1.41 1.445,1.445 1.444,0.055 0.995,-1.147 0.813,-1.969 h -1.119 c -3.098,0 -5.401,-0.942 -5.942,-3.242 -0.447,-1.945 0.461,-3.132 2.698,-3.132 1.771,0 2.769,0.881 3.347,1.551 h 0.043 C -3.367,0.592 -3.436,0.294 -3.424,-0.002 H 0 Z m -5.801,3.012 c 0.139,0.666 0.631,1.003 1.219,1.263 0.535,0.252 1.246,0.205 1.994,0.205 C -2.863,3.219 -3.299,1.775 -4.848,1.775 -5.523,1.773 -5.945,2.334 -5.801,3.012" /></g><g
     transform="matrix(60.95282,0,0,-60.95282,630.09852,1151.2527)"
     id="g230"
     style="fill:#0f408f"
     inkscape:export-filename="C:\Users\suitedoalex\sites\embrapa-logo-7.png"
     inkscape:export-xdpi="14.455771"
     inkscape:export-ydpi="14.455771"><path
       inkscape:connector-curvature="0"
       id="path232"
       style="fill:#0f408f;fill-opacity:1;fill-rule:nonzero;stroke:none"
       d="m 0,0 0.561,2.619 h -6.579 l 0.622,2.88 H 0.65 l 0.577,2.64 h -6.065 l 0.608,2.794 h 6.591 l 0.561,2.634 H -7.428 L -10.35,0 Z" /></g><g
     transform="matrix(60.95282,0,0,-60.95282,3741.9045,685.35353)"
     id="g234"
     style="fill:#0f408f"
     inkscape:export-filename="C:\Users\suitedoalex\sites\embrapa-logo-7.png"
     inkscape:export-xdpi="14.455771"
     inkscape:export-ydpi="14.455771"><path
       inkscape:connector-curvature="0"
       id="path236"
       style="fill:#0f408f;fill-opacity:1;fill-rule:nonzero;stroke:none"
       d="M 0,0 C 1.5,0 1.35,-1.731 1.088,-2.934 0.836,-4.143 0.242,-5.87 -1.273,-5.87 c -1.502,0 -1.356,1.727 -1.1,2.936 C -2.111,-1.731 -1.514,0 0,0 M -1.353,1.79 H -4.932 L -7.74,-11.256 h 3.576 l 1.021,4.722 h 0.036 c 0.478,-0.816 1.316,-1.399 2.373,-1.399 3.023,0 4.923,2.363 5.523,5.123 0.537,2.487 -0.17,4.882 -2.982,4.882 -1.389,0 -2.461,-0.514 -3.418,-1.628 h -0.03 z" /></g><g
     transform="matrix(60.95282,0,0,-60.95282,1591.0563,559.04093)"
     id="g238"
     style="fill:#0f408f"
     inkscape:export-filename="C:\Users\suitedoalex\sites\embrapa-logo-7.png"
     inkscape:export-xdpi="14.455771"
     inkscape:export-ydpi="14.455771"><path
       inkscape:connector-curvature="0"
       id="path240"
       style="fill:#0f408f;fill-opacity:1;fill-rule:nonzero;stroke:none"
       d="m 0,0 c -1.428,-0.044 -2.859,-0.676 -3.738,-1.806 -0.147,1.142 -1.321,1.746 -2.467,1.746 -1.408,0 -2.762,-0.491 -3.701,-1.782 h -0.033 l 0.285,1.557 h -3.541 c -0.125,-1.024 -0.227,-1.581 -0.414,-2.428 l -1.514,-7.005 h 3.58 l 1.166,5.408 c 0.023,0.119 0.221,2.049 1.98,2.049 1.116,0 1.129,-0.994 0.965,-1.923 l -1.191,-5.534 h 3.576 l 1.16,5.408 c 0.03,0.119 0.215,2.049 1.99,2.049 1.102,0 1.112,-0.994 0.956,-1.923 l -1.194,-5.534 h 3.106 l 1.746,8.135 C 2.334,-0.573 1.342,0 0,0" /></g></svg>
